<svg width="75" height="100" viewBox="0 0 75 100" fill="none" xmlns="http://www.w3.org/2000/svg">
<g clip-path="url(#clip0_73_4)">
<path d="M29.1638 1.23475C29.2414 1.03719 29.3613 0.896076 29.5095 0.797297C29.6647 0.705573 29.8623 0.656183 30.1163 0.656183H30.4832V4.57208C30.4832 4.8402 30.4549 5.03775 30.4056 5.16476C30.3562 5.29176 30.2574 5.37643 30.1233 5.42582C29.9893 5.47521 29.7705 5.50343 29.4742 5.51754V5.89149H32.7692V5.51754C32.4729 5.50343 32.2612 5.46815 32.1271 5.42582C31.9931 5.37643 31.9014 5.29176 31.8449 5.16476C31.7885 5.03775 31.7602 4.8402 31.7602 4.57208V0.663239H32.1271C32.3811 0.663239 32.5858 0.705573 32.741 0.797297C32.8892 0.88902 33.0091 1.03013 33.0867 1.23475C33.1643 1.43231 33.2278 1.70042 33.2631 2.03909H33.6512V6.10854e-06H33.3407C33.3195 0.0635071 33.2772 0.105841 33.2137 0.127008C33.1502 0.148175 33.0585 0.162287 32.9385 0.162287H29.3119C29.192 0.162287 29.1003 0.148175 29.0438 0.127008C28.9803 0.105841 28.938 0.0635071 28.9098 -0.00704956H28.5993V2.03204H28.9874C29.0226 1.69337 29.0861 1.42525 29.1638 1.22769V1.23475Z" fill="white"/>
<path d="M36.9109 5.5246C36.7063 5.50343 36.551 5.46816 36.4523 5.41171C36.3535 5.36232 36.2829 5.2706 36.2406 5.15065C36.1982 5.0307 36.1771 4.8402 36.1771 4.57914V3.14684H38.4631V4.57914C38.4631 4.83315 38.442 5.01659 38.4067 5.1436C38.3714 5.26354 38.3008 5.35527 38.195 5.41171C38.0962 5.46816 37.941 5.50343 37.7293 5.5246V5.89855H40.5304V5.5246C40.3046 5.50343 40.1424 5.46816 40.0365 5.41171C39.9307 5.36232 39.8531 5.2706 39.8108 5.1436C39.7684 5.01659 39.7473 4.82609 39.7473 4.57914V1.4817C39.7473 1.2277 39.7684 1.04425 39.8108 0.917249C39.8531 0.790247 39.9236 0.705579 40.0365 0.649134C40.1494 0.592688 40.3117 0.55741 40.5375 0.536243V0.162292H37.7364V0.536243C37.941 0.55741 38.0962 0.592688 38.195 0.649134C38.2938 0.698523 38.3643 0.790247 38.4067 0.910193C38.449 1.03014 38.4702 1.22064 38.4702 1.4817V2.70233H36.1841V1.4817C36.1841 1.2277 36.2053 1.04425 36.2406 0.917249C36.2759 0.797303 36.3464 0.705579 36.4523 0.649134C36.551 0.592688 36.7063 0.55741 36.9179 0.536243V0.162292H34.1168V0.536243C34.3426 0.55741 34.5049 0.592688 34.6107 0.649134C34.7166 0.698523 34.7942 0.790247 34.8365 0.917249C34.8788 1.04425 34.9 1.23475 34.9 1.4817V4.57914C34.9 4.83315 34.8788 5.01659 34.8365 5.1436C34.7942 5.26354 34.7236 5.35527 34.6107 5.41171C34.5049 5.46816 34.3356 5.50343 34.1098 5.5246V5.89855H36.9109V5.5246Z" fill="white"/>
<path d="M46.2314 4.01468H45.8434C45.6881 4.45213 45.5541 4.76964 45.4271 4.96014C45.3071 5.1577 45.1448 5.2847 44.9402 5.36231C44.7356 5.43287 44.4393 5.47521 44.0371 5.47521H43.6138C43.3598 5.47521 43.2398 5.34115 43.2398 5.08009V3.1045H43.7055C43.9101 3.1045 44.0653 3.13272 44.1712 3.18211C44.277 3.2315 44.3617 3.33028 44.4181 3.46434C44.4746 3.5984 44.531 3.80301 44.5804 4.07818H44.9049V1.74276H44.5804C44.531 2.01793 44.4746 2.21549 44.4181 2.34249C44.3617 2.46949 44.277 2.56121 44.1712 2.61766C44.0653 2.6741 43.9101 2.70233 43.6984 2.70233H43.2328V0.592682H44.1853C44.4957 0.592682 44.7427 0.627961 44.912 0.698517C45.0884 0.769074 45.2295 0.896076 45.3353 1.07247C45.4412 1.24886 45.547 1.52403 45.6528 1.89093H46.048L45.9421 0.169342H41.1654V0.543292C41.3912 0.56446 41.5535 0.599738 41.6593 0.656183C41.7652 0.705573 41.8428 0.797297 41.8851 0.924299C41.9275 1.0513 41.9486 1.2418 41.9486 1.48875V4.58619C41.9486 4.83314 41.9275 5.01659 41.8851 5.14359C41.8428 5.27059 41.7722 5.36232 41.6593 5.4117C41.5535 5.46815 41.3842 5.50343 41.1584 5.5246V5.89855H46.0127L46.2244 4.01468H46.2314Z" fill="white"/>
<path d="M23.3993 98.7935L21.6212 93.9674L20.4359 94.3766L18.7848 98.7653C18.6861 99.0122 18.5802 99.1886 18.4603 99.3015C18.3403 99.4144 18.1781 99.4779 17.9805 99.492V99.8659H19.949V99.492C19.7444 99.492 19.5892 99.4497 19.4834 99.3791C19.3775 99.3086 19.3281 99.2027 19.3281 99.0475C19.3281 98.9417 19.3564 98.8005 19.4199 98.6242L19.6668 97.9398H21.7553L22.0093 98.6453C22.0728 98.8217 22.1081 98.9699 22.1081 99.0828C22.1081 99.2309 22.0516 99.3297 21.9387 99.3862C21.8258 99.4426 21.6494 99.4708 21.4025 99.4779V99.8518H24.1472V99.4779C23.9778 99.4638 23.8367 99.4073 23.7168 99.3015C23.5968 99.1957 23.491 99.0263 23.3993 98.7864V98.7935ZM19.815 97.5164L20.1466 96.5992C20.4994 95.6467 20.6758 95.061 20.6828 94.8494H20.7252C20.7252 94.9623 20.7675 95.1598 20.8592 95.4279C20.9509 95.7031 21.085 96.0912 21.2614 96.5851L21.593 97.5164H19.8079H19.815Z" fill="white"/>
<path d="M29.573 98.8288L29.199 98.0033C29.0791 97.7422 28.9521 97.5446 28.8251 97.4106C28.6981 97.2765 28.5358 97.1777 28.3594 97.1213C28.176 97.0648 27.9431 97.0296 27.6468 97.0225H27.4704V96.959H27.7244C28.2677 96.9378 28.6981 96.8038 29.0297 96.5568C29.3543 96.3099 29.5165 95.9783 29.5165 95.562C29.5165 95.0893 29.3401 94.7365 28.9803 94.5107C28.6275 94.2849 28.1125 94.172 27.4492 94.172H24.5211V94.546C24.7399 94.5601 24.9021 94.5954 25.008 94.6448C25.1138 94.6941 25.1914 94.7859 25.2337 94.9129C25.2761 95.0399 25.2972 95.2304 25.2972 95.4773V98.5536C25.2972 98.8005 25.2761 98.991 25.2337 99.118C25.1914 99.245 25.1209 99.3297 25.008 99.3862C24.9021 99.4426 24.7328 99.4779 24.5141 99.492V99.8659H27.3575V99.492C27.1388 99.4779 26.9765 99.4426 26.8707 99.3862C26.7648 99.3297 26.6872 99.245 26.6449 99.118C26.6025 98.991 26.5814 98.8076 26.5814 98.5536V97.1636H26.8142C27.0894 97.1636 27.3011 97.2412 27.4563 97.3965C27.6045 97.5517 27.7456 97.7916 27.8726 98.1091L28.2395 99.0687C28.3241 99.2662 28.3947 99.4356 28.4582 99.5626C28.5217 99.6896 28.5852 99.7954 28.6487 99.8659H30.4126V99.4991C30.2009 99.4638 30.0316 99.3932 29.9046 99.2874C29.7776 99.1816 29.6718 99.0334 29.58 98.8288H29.573ZM26.9906 96.7967H26.5673V94.5883H27.1035C27.4704 94.5883 27.7385 94.6871 27.8937 94.8846C28.056 95.0822 28.1336 95.3221 28.1336 95.6184C28.1336 96.4087 27.7526 96.7967 26.9836 96.7967H26.9906Z" fill="white"/>
<path d="M35.2175 94.1297C35.154 94.1509 35.0623 94.165 34.9423 94.165H31.3439C31.224 94.165 31.1323 94.1509 31.0758 94.1297C31.0194 94.1085 30.97 94.0662 30.9488 94.0027H30.6384V96.0277H31.0194C31.0547 95.689 31.1182 95.4279 31.1958 95.2304C31.2734 95.0328 31.3863 94.8917 31.5415 94.8C31.6967 94.7083 31.8943 94.6589 32.1412 94.6589H32.5081V98.5465C32.5081 98.8147 32.4799 99.0052 32.4305 99.1322C32.3811 99.2592 32.2823 99.3438 32.1483 99.3862C32.0142 99.4356 31.7955 99.4638 31.5062 99.4779V99.8518H34.78V99.4779C34.4837 99.4638 34.272 99.4285 34.138 99.3862C34.0039 99.3368 33.9122 99.2521 33.8558 99.1322C33.7993 99.0052 33.7711 98.8147 33.7711 98.5465V94.6589H34.138C34.392 94.6589 34.5966 94.7012 34.7448 94.7929C34.8929 94.8847 35.0058 95.0258 35.0834 95.2233C35.1611 95.4209 35.2175 95.689 35.2598 96.0277H35.6408V94.0027H35.3304C35.3092 94.0591 35.2669 94.1015 35.2034 94.1297H35.2175Z" fill="white"/>
<path d="M36.5087 94.5389C36.7345 94.5601 36.8968 94.5954 37.0026 94.6518C37.1084 94.7012 37.186 94.7929 37.2284 94.9199C37.2707 95.0469 37.2919 95.2304 37.2919 95.4844V98.5607C37.2919 98.8076 37.2707 98.991 37.2284 99.111C37.186 99.238 37.1155 99.3227 37.0026 99.3791C36.8968 99.4356 36.7274 99.4708 36.5087 99.492V99.8659H39.3521V99.492C39.1334 99.4708 38.9711 99.4356 38.8653 99.3791C38.7595 99.3297 38.6818 99.238 38.6395 99.118C38.5972 98.991 38.576 98.8076 38.576 98.5536V95.4773C38.576 95.2304 38.5972 95.0399 38.6395 94.9199C38.6818 94.8 38.7524 94.7083 38.8582 94.6589C38.9641 94.6024 39.1334 94.5671 39.3592 94.546V94.172H36.5158V94.546L36.5087 94.5389Z" fill="white"/>
<path d="M42.9435 96.5568L41.7228 95.9924C41.2713 95.7948 41.0455 95.5196 41.0455 95.1598C41.0455 94.9481 41.1231 94.7788 41.2783 94.6518C41.4336 94.5248 41.6593 94.4613 41.9557 94.4613C42.7177 94.4613 43.2257 94.8987 43.4726 95.7666H43.8819V94.3555C43.6561 94.2496 43.395 94.165 43.1058 94.1015C42.8165 94.045 42.5201 94.0097 42.2026 94.0097C41.7228 94.0097 41.3207 94.0873 40.9961 94.2426C40.6645 94.3978 40.4246 94.6095 40.2623 94.8705C40.1 95.1316 40.0154 95.4279 40.0154 95.7525C40.0154 96.077 40.1071 96.3593 40.2976 96.6344C40.4881 96.9026 40.7703 97.1283 41.1513 97.3118L42.4143 97.9256C42.6401 98.0315 42.7953 98.1444 42.9011 98.2643C42.9999 98.3842 43.0493 98.5536 43.0493 98.7723C43.0493 99.0193 42.9576 99.2027 42.7812 99.3297C42.6048 99.4567 42.372 99.5202 42.0827 99.5202C41.6593 99.5202 41.2995 99.3862 41.0102 99.1251C40.7209 98.864 40.5234 98.4619 40.4175 97.9256H39.9942V99.4779C40.2623 99.6472 40.5587 99.7742 40.8832 99.8589C41.2078 99.9435 41.5323 99.9859 41.8428 99.9859C42.3085 99.9859 42.7177 99.9083 43.0564 99.746C43.4021 99.5837 43.6631 99.365 43.8466 99.0757C44.03 98.7935 44.1218 98.4689 44.1218 98.102C44.1218 97.7069 44.0159 97.3894 43.8113 97.1566C43.5996 96.9237 43.3104 96.7191 42.9435 96.5427V96.5568Z" fill="white"/>
<path d="M49.7099 98.7935L47.9318 93.9674L46.7465 94.3766L45.0955 98.7653C44.9967 99.0122 44.8908 99.1886 44.7709 99.3015C44.6509 99.4144 44.4887 99.4779 44.2911 99.492V99.8659H46.2596V99.492C46.055 99.492 45.8998 99.4497 45.794 99.3791C45.6881 99.3086 45.6387 99.2027 45.6387 99.0475C45.6387 98.9417 45.667 98.8005 45.7305 98.6242L45.9774 97.9398H48.0659L48.3199 98.6453C48.3834 98.8217 48.4187 98.9699 48.4187 99.0828C48.4187 99.2309 48.3622 99.3297 48.2493 99.3862C48.1364 99.4426 47.9601 99.4708 47.7131 99.4779V99.8518H50.4578V99.4779C50.2884 99.4638 50.1473 99.4073 50.0274 99.3015C49.9074 99.1957 49.8016 99.0263 49.7099 98.7864V98.7935ZM46.1256 97.5164L46.4572 96.5992C46.81 95.6467 46.9864 95.061 46.9934 94.8494H47.0358C47.0358 94.9623 47.0781 95.1598 47.1698 95.4279C47.2615 95.7031 47.3956 96.0912 47.572 96.5851L47.9036 97.5164H46.1185H46.1256Z" fill="white"/>
<path d="M54.8958 94.5389C55.1145 94.553 55.2697 94.5883 55.3755 94.6306C55.4743 94.68 55.5449 94.7576 55.5872 94.8705C55.6295 94.9834 55.6507 95.1598 55.6507 95.3926V97.1072C55.6507 97.4952 55.6648 97.8198 55.6931 98.0809L55.6437 98.095C55.5872 97.9256 55.5167 97.7775 55.4461 97.6505C55.3755 97.5235 55.2556 97.3541 55.1004 97.1424L52.7508 94.1579H50.867V94.5318C51.0504 94.553 51.1915 94.5883 51.2833 94.6306C51.375 94.68 51.4879 94.7717 51.6149 94.9199V98.5395C51.6149 98.7864 51.5937 98.9699 51.5514 99.0898C51.509 99.2168 51.4385 99.3015 51.3256 99.3579C51.2198 99.4144 51.0504 99.4497 50.8317 99.4708V99.8448H52.9061V99.4708C52.6097 99.4426 52.4122 99.3862 52.3063 99.3015C52.2005 99.2168 52.1441 99.0545 52.1441 98.8146V96.1194C52.1441 95.823 52.1229 95.569 52.0876 95.3574L52.1229 95.3433C52.2076 95.5479 52.3416 95.7666 52.5251 95.9853L55.7354 99.8942H56.194V95.4632C56.194 95.2163 56.2152 95.0257 56.2575 94.8987C56.2998 94.7717 56.3704 94.6871 56.4833 94.6306C56.5891 94.5742 56.7585 94.5389 56.9772 94.5248V94.1508H54.9169V94.5248L54.8958 94.5389Z" fill="white"/>
<path d="M14.3045 39.1237C14.5373 39.1237 14.7843 39.1025 15.0383 39.0531C18.4885 38.3899 18.4109 34.1565 17.4302 29.2175C16.4847 24.5961 15.0312 20.9554 12.0749 20.9554C11.8491 20.9554 11.6092 20.9765 11.3552 21.0189C10.2969 21.2164 9.59132 21.802 9.12564 22.5499V30.2759C9.16092 30.4311 9.20325 30.6287 9.23853 30.7839C10.184 35.3913 11.3976 39.1308 14.3045 39.1308V39.1237ZM9.62659 22.6981C10.0711 22.049 10.6708 21.6539 11.447 21.5127C11.6586 21.4704 11.8703 21.4492 12.0749 21.4492C14.2974 21.4492 15.8426 23.947 16.9433 29.3093C17.4584 31.9058 18.0017 35.5747 16.774 37.4021C16.3577 38.023 15.758 38.397 14.9466 38.5522C14.7278 38.5945 14.5162 38.6157 14.3116 38.6157C11.8632 38.6157 10.7132 35.4406 9.73948 30.671C9.71832 30.5793 9.69715 30.4946 9.67598 30.4099C9.66187 30.3394 9.64776 30.2688 9.63365 30.2053V22.6981H9.62659Z" fill="white"/>
<path d="M10.0076 47.7316L10.2898 47.0966L10.8331 45.8407L11.0377 45.375L10.572 45.1775C10.572 45.1775 9.6548 44.7612 9.62658 43.5899V40.6477C10.7696 41.0922 12.0043 41.318 13.2955 41.318C13.994 41.318 14.7208 41.2545 15.4475 41.1205C18.5026 40.5348 21.1203 38.8132 22.8277 36.2732C24.4717 33.8178 25.0573 30.8686 24.4717 27.9828C23.371 22.7475 18.6226 18.9515 13.1897 18.9515C12.4559 18.9515 11.7151 19.0221 10.9883 19.1562C10.8895 19.1773 10.6849 19.2267 10.318 19.3184C9.23146 19.5936 6.96659 20.1651 5.83063 20.1651C5.69657 20.1722 5.54841 20.1792 5.37201 20.1792C3.85504 20.1792 2.59914 19.9252 2.18285 19.523L1.63956 19.008L1.37145 19.6994L0.86344 20.9906L0.679993 21.4563L1.14567 21.6397C1.14567 21.6397 2.01351 22.0208 2.04174 23.1849V43.8016C1.91473 44.8176 1.16683 45.1563 1.13861 45.1704L0.687048 45.368L0.86344 45.8195L1.37145 47.0754L1.63956 47.7387L2.16874 47.2589C2.64147 46.8285 4.63822 46.6168 5.83063 46.6098C7.02304 46.6098 9.01274 46.8285 9.48547 47.2589L10.0005 47.7246L10.0076 47.7316ZM5.83063 46.1088C5.7883 46.1088 2.65558 46.1441 1.83007 46.892L1.32206 45.6431C1.32206 45.6431 2.38041 45.2127 2.53563 43.8369V23.1849C2.4933 21.6539 1.32206 21.1882 1.32206 21.1882L1.83007 19.897C2.52858 20.5602 4.356 20.6872 5.37201 20.6872C5.55546 20.6872 5.71069 20.6872 5.83063 20.6802C7.36171 20.6802 10.6497 19.7418 11.0871 19.6642C11.7927 19.5301 12.4982 19.4666 13.1897 19.4666C18.3121 19.4666 22.9124 23.0227 23.9778 28.0957C25.1561 33.8954 21.2755 39.5047 15.3558 40.6407C14.6502 40.7677 13.9588 40.8312 13.2955 40.8312C11.7574 40.8312 10.3533 40.4996 9.12563 39.8998V43.6252C9.16091 45.1492 10.3815 45.6643 10.3815 45.6643L9.8312 46.9132C9.01274 46.1723 5.87297 46.13 5.83063 46.13V46.1088Z" fill="white"/>
<path d="M8.61765 43.6111V39.0672L9.34438 39.42C10.5438 40.0057 11.8774 40.302 13.2956 40.302C13.9376 40.302 14.6009 40.2385 15.2641 40.1185C18.044 39.5823 20.4359 38.016 21.9881 35.6946C23.4839 33.458 24.0131 30.7839 23.4839 28.1662C22.482 23.4037 18.1499 19.9393 13.1897 19.9393C12.5194 19.9393 11.8421 20.0028 11.1789 20.1298C11.0871 20.1439 10.8684 20.2004 10.565 20.278C9.35143 20.5814 7.09362 21.1529 5.83771 21.1529C5.73893 21.16 5.57665 21.167 5.37909 21.167C4.50419 21.167 3.05778 21.0823 2.08409 20.6237L1.95709 20.9483C2.39454 21.2729 3.01544 21.9431 3.05072 23.1426V43.8722C2.93077 44.9164 2.36632 45.5161 1.96415 45.8195L2.09115 46.1441C3.41762 45.5867 5.80949 45.5796 5.83771 45.5796C5.86593 45.5796 8.27192 45.5937 9.59838 46.1511L9.74655 45.8125C9.29499 45.4809 8.65998 44.7965 8.6247 43.5899L8.61765 43.6111ZM8.61765 22.4088L8.69526 22.2889C9.30204 21.3293 10.1628 20.7366 11.2635 20.532C11.5387 20.4826 11.8139 20.4615 12.0749 20.4615C15.6874 20.4615 17.0986 25.09 17.9241 29.1258C18.8131 33.5991 18.7143 36.3297 17.6066 37.9807C17.0421 38.8203 16.2095 39.3565 15.1371 39.5611C14.8549 39.6176 14.5797 39.6458 14.3116 39.6458C10.8331 39.6458 9.61955 35.1302 8.7517 30.8968C8.73759 30.8333 8.71642 30.7416 8.69526 30.6498C8.68115 30.5652 8.65998 30.4876 8.63881 30.4099L8.6247 30.3535V22.4229L8.61765 22.4088Z" fill="white"/>
<path d="M15.9132 76.2224V59.1336C15.9414 57.927 18.6932 55.4858 19.1518 55.1612L19.0036 54.8084C17.6771 55.3941 13.1544 55.4011 13.1262 55.4011C13.098 55.4011 8.59649 55.3941 7.26296 54.8155L7.12891 55.1542C7.56636 55.4787 10.304 57.9129 10.3392 59.1195V76.2153C10.2193 77.2384 7.53814 79.7361 7.12891 80.0395L7.26296 80.3852C8.59649 79.8067 13.098 79.7996 13.1262 79.7996C13.1544 79.7996 17.6701 79.8067 19.0036 80.3923L19.1518 80.0395C18.7002 79.715 15.9485 77.4219 15.9132 76.2153V76.2224Z" fill="white"/>
<path d="M19.4198 81.9939L19.7021 81.3307L20.2454 80.0395L20.45 79.5597L19.9702 79.3763C19.9702 79.3763 16.9504 77.3936 16.9221 76.2365V59.1477C16.9504 58.0047 19.942 55.8668 19.9772 55.8527L20.4429 55.6622L20.2524 55.1965L19.7091 53.9053L19.4269 53.235L18.9048 53.736C18.4321 54.1875 14.3257 54.4133 13.1332 54.4204C11.9479 54.4204 7.84149 54.1946 7.36876 53.736L6.83253 53.2209L6.55736 53.9124L6.04935 55.2036L5.86591 55.6692L6.33158 55.8527C6.33158 55.8527 9.31613 57.9976 9.34435 59.1618V76.2365C9.21735 77.2173 6.35275 79.3692 6.31747 79.3833L5.87296 79.5738L6.0423 80.0254L6.55031 81.3166L6.82548 82.0081L7.36171 81.493C7.83444 81.0414 11.9408 80.8227 13.1332 80.8086C14.3186 80.8227 18.425 81.0414 18.8977 81.493L19.4198 81.9939ZM7.01598 81.1331L6.50797 79.842C6.50797 79.842 9.68302 77.563 9.83825 76.2295V59.1406C9.79591 57.6166 6.50797 55.3799 6.50797 55.3799L7.01598 54.0888C7.84149 54.8719 13.0909 54.9072 13.1332 54.9072C13.1756 54.9072 18.425 54.8719 19.2505 54.0888L19.7938 55.3799C19.7938 55.3799 16.4635 57.6166 16.4282 59.1406V76.2295C16.4635 77.7605 19.7938 79.842 19.7938 79.842L19.2505 81.1331C18.425 80.35 13.1756 80.3147 13.1332 80.3147C13.0909 80.3147 7.84149 80.357 7.01598 81.1331Z" fill="white"/>
<path d="M48.4187 79.5456C48.468 73.8235 43.6279 71.8973 39.3592 70.1969C38.5619 69.8794 37.7858 69.5689 37.059 69.2373C36.1488 68.821 35.3233 68.3836 34.6813 67.8685C34.0392 67.3605 33.5665 66.7749 33.3619 66.0834C34.2015 66.2316 35.1046 66.3162 36.0642 66.3374C36.671 66.3162 37.2495 66.2528 37.814 66.1822C39.5497 65.9635 41.0525 65.519 42.3296 64.8628C42.3719 64.9898 42.4213 65.1097 42.4566 65.2367L42.5413 65.5966L42.9082 65.6248L45.6105 65.8153L46.3937 65.8717L46.1185 65.138L46.0691 65.0039C45.8716 64.4677 45.4906 63.4658 45.1942 62.5697C45.9986 61.596 46.5983 60.4389 47.0075 59.0983C47.4167 57.7577 47.6284 56.2266 47.6284 54.5121V42.0095C47.6566 40.8665 48.5245 40.4925 48.5668 40.4784L49.0254 40.2879L48.8491 39.8222L48.341 38.531L48.0729 37.8537L47.5367 38.3405C47.2756 38.5804 46.4713 38.8909 44.1076 39.0108C43.9947 39.0108 43.9101 39.0179 43.8325 39.032C43.7619 39.0249 43.6702 39.0179 43.5644 39.0108C41.236 38.8838 40.4316 38.5804 40.1706 38.3405L39.6273 37.8537L39.3592 38.531L38.8512 39.8222L38.6677 40.2879L39.1263 40.4784C39.1263 40.4784 39.9025 40.8241 40.0295 41.8049V54.0817C40.0436 56.4313 39.8883 58.2728 39.5426 59.6698C39.0417 59.564 38.4772 59.4722 37.7999 59.4087C37.2425 59.3594 36.6286 59.3241 35.9372 59.3241H35.789C34.5966 59.3241 33.5312 59.4511 32.5857 59.6698C32.5222 59.3805 32.4658 59.0701 32.4093 58.7455C32.2188 57.4967 32.1271 55.9656 32.1271 54.0817V41.8049C32.2541 40.8029 33.0232 40.4784 33.0302 40.4784L33.4889 40.2879L33.3054 39.8222L32.7974 38.531L32.5222 37.8396L31.9789 38.3546C31.4992 38.8062 29.5165 39.032 28.3241 39.039C27.3998 39.039 25.1843 38.8485 24.6269 38.3476L24.0907 37.8607L23.8226 38.5381L23.3146 39.8293L23.1311 40.302L23.6039 40.4854C23.6039 40.4854 24.507 40.8665 24.5352 42.0306V54.5192C24.5493 56.0785 24.7398 57.4896 25.0856 58.7526C25.5512 60.4742 26.3132 61.9135 27.3716 63.0565C26.786 63.9385 26.4261 64.8981 26.278 65.8365C26.0733 67.1277 26.1792 68.2566 26.5037 69.2585C27.0259 70.9024 28.1548 72.2007 29.5447 73.3084C30.9276 74.4162 32.5787 75.3263 34.145 76.1942C37.0731 77.8099 39.839 79.341 39.839 81.6412C39.839 84.2729 36.9109 84.915 36.1277 84.9432H35.9936C31.1393 84.9432 30.8077 83.3486 30.1445 80.1665L30.0527 79.7361L29.9681 79.341H29.5659L26.3485 79.2987H25.5795L25.8828 79.9972C26.6237 81.7541 26.2145 83.9554 25.6641 86.0651L25.5583 86.4602L25.9252 86.6436L27.0259 87.194L27.428 87.3915L27.675 87.0176C28.1124 86.3614 28.4229 86.2344 28.818 86.2344C29.2131 86.2344 29.7211 86.3614 30.3702 86.5307C31.6332 86.8553 33.5382 87.3421 36.4593 87.3563H36.6075C43.7407 87.3563 48.3693 84.3011 48.4116 79.5668L48.4187 79.5456ZM45.6387 65.3143L42.9364 65.1168C42.8941 64.9404 42.8376 64.7781 42.7812 64.6088C42.8517 64.5664 42.9293 64.5312 42.9999 64.4818C43.0705 64.4324 43.141 64.3901 43.2116 64.3407C43.2468 64.4394 43.2892 64.5312 43.3174 64.637L44.8908 64.7499C44.7003 64.2419 44.538 63.7903 44.404 63.3952C44.4534 63.3458 44.5098 63.3035 44.5592 63.2541C44.5733 63.24 44.5945 63.2259 44.6086 63.2118L44.665 63.1553C44.7144 63.1059 44.7568 63.0565 44.7991 63.0142C45.0672 63.8185 45.3918 64.6652 45.6317 65.3143H45.6387ZM39.585 61.1515C39.6202 61.0809 39.6485 60.9963 39.6767 60.9187C39.6978 60.8622 39.719 60.8058 39.7402 60.7423C39.7684 60.6647 39.8037 60.587 39.8248 60.5024C39.8531 60.4248 39.8742 60.3401 39.8954 60.2625C39.9166 60.1849 39.9448 60.1002 39.966 60.0155C39.9871 59.9379 40.0154 59.8603 40.0295 59.7756C40.3964 58.2869 40.5375 56.3819 40.5304 54.0747V41.7696C40.3752 40.4361 39.3168 40.0057 39.3168 40.0057L39.8248 38.7145C40.6856 39.4976 43.7831 39.4976 43.8184 39.5329C43.8607 39.4976 46.9934 39.4976 47.8542 38.7145L48.3622 40.0057C48.3622 40.0057 47.1486 40.4784 47.1063 42.0024V54.5051C47.0922 57.8494 46.2878 60.2554 44.9896 61.977C44.9261 62.0617 44.8555 62.1322 44.792 62.2169C44.7285 62.2945 44.665 62.3721 44.6015 62.4427C44.538 62.5132 44.4745 62.5979 44.411 62.6685C44.3475 62.732 44.277 62.7955 44.2064 62.859C43.8325 63.2329 43.4232 63.5716 42.9928 63.8679C42.9223 63.9173 42.8588 63.9597 42.7812 64.002C42.7106 64.0514 42.633 64.0867 42.5624 64.129C42.4848 64.1713 42.4143 64.2137 42.3367 64.256C42.2661 64.2983 42.1956 64.3407 42.1179 64.383C40.8126 65.0745 39.3309 65.4766 37.7787 65.6812C37.2072 65.7518 36.6286 65.8082 36.043 65.8294C35.0693 65.8153 34.1168 65.7095 33.2137 65.5401C33.2066 65.4555 33.1996 65.3708 33.1925 65.2861C33.1855 65.2015 33.1925 65.1097 33.1925 65.0251C34.0745 65.2015 35.0199 65.3143 36.0571 65.3355C36.6639 65.3073 37.2354 65.2508 37.7858 65.1803C39.3662 64.9686 40.728 64.5664 41.8851 63.9597C41.9557 63.9173 42.0333 63.882 42.1038 63.8397C42.1814 63.7974 42.2591 63.755 42.3367 63.7127C42.4072 63.6704 42.4848 63.628 42.5554 63.5857C42.6259 63.5363 42.6894 63.4869 42.76 63.4446C43.2327 63.12 43.6631 62.7602 44.0512 62.351C44.1147 62.2875 44.1782 62.2099 44.2346 62.1393C44.2346 62.1393 44.2417 62.1393 44.2488 62.1252C44.3123 62.0476 44.3758 61.977 44.4393 61.8994C44.5028 61.8218 44.5663 61.7512 44.6298 61.6666C44.7003 61.5748 44.7568 61.4761 44.8273 61.3773C45.9986 59.6557 46.5983 57.3838 46.6053 54.5192V42.0165C46.6406 40.7959 47.2827 40.1256 47.7343 39.801L47.6002 39.4553C46.7041 39.8363 45.3212 39.9633 44.1359 40.0268C44.0371 40.0268 43.9595 40.0339 43.9171 40.0409C43.8819 40.0409 43.8466 40.048 43.8113 40.048C43.776 40.048 43.7407 40.048 43.7055 40.0409C43.6631 40.0409 43.5855 40.0409 43.4867 40.0268C42.3155 39.9633 40.9538 39.8363 40.0647 39.4624L39.9307 39.8081C40.3399 40.1115 40.8973 40.6971 41.0243 41.7272C41.0243 41.7484 41.0243 41.7696 41.0243 41.7907V54.0958C41.0384 56.142 40.9396 58.2022 40.5163 59.9238C40.4951 60.0085 40.481 60.0931 40.4599 60.1708C40.4387 60.2554 40.4105 60.333 40.3893 60.4107C40.3611 60.4883 40.3399 60.5729 40.3117 60.6505C40.2835 60.7282 40.2623 60.8128 40.2341 60.8904C40.2059 60.9751 40.1706 61.0457 40.1424 61.1303C40.1071 61.2079 40.0789 61.2856 40.0436 61.3632C40.0083 61.4408 39.9801 61.5254 39.9448 61.6101C39.9025 61.6877 39.8601 61.7583 39.8178 61.8288C39.7755 61.8994 39.7402 61.977 39.6908 62.0476C39.2322 62.8308 38.6113 63.4234 37.7928 63.7762C37.2919 63.9879 36.7274 64.1219 36.0571 64.129C35.1117 64.129 34.3426 63.9032 33.7076 63.501C33.757 63.4375 33.7993 63.374 33.8487 63.3035C33.8487 63.3035 33.8558 63.2894 33.8628 63.2823C33.9122 63.2188 33.9757 63.1624 34.0251 63.1059C34.5754 63.4446 35.2387 63.628 36.0501 63.628C36.7133 63.628 37.2919 63.4869 37.7858 63.2259C38.3643 62.9295 38.8371 62.4709 39.2181 61.85C39.2604 61.7795 39.3027 61.7089 39.3451 61.6313C39.3874 61.5607 39.4156 61.4831 39.458 61.4126C39.4932 61.3349 39.5356 61.2573 39.5779 61.1727L39.585 61.1515ZM34.4132 62.7108C35.2457 61.9982 36.4099 61.5396 37.5176 61.5396C37.6164 61.5396 37.7081 61.5607 37.7999 61.5607C38.1103 61.5748 38.4067 61.6172 38.6959 61.6877C38.4419 62.0687 38.1385 62.3792 37.7999 62.605C37.306 62.9295 36.7345 63.0918 36.0571 63.1059C35.4221 63.1059 34.8788 62.9789 34.4132 62.7179V62.7108ZM25.6006 58.7385C25.2549 57.5249 25.0644 56.1208 25.0503 54.5051V42.0024C25.0079 40.4713 23.7944 40.0057 23.7944 40.0057L24.3024 38.7145C24.7328 39.1025 25.7276 39.3071 26.6166 39.42C27.5127 39.5259 28.3029 39.54 28.3382 39.54C28.3947 39.54 31.5133 39.5047 32.3317 38.7215L32.8397 40.0127C32.8397 40.0127 31.7814 40.4431 31.6262 41.7766V54.0817C31.6262 55.8809 31.7038 57.4332 31.8943 58.7455C31.9507 59.1195 32.0142 59.4723 32.0848 59.8039C32.0072 59.825 31.9154 59.8462 31.8378 59.8674C31.7602 59.8885 31.6897 59.9168 31.612 59.9379C31.5274 59.564 31.4568 59.1618 31.3933 58.7385C31.1958 57.3838 31.1252 55.8174 31.1252 54.0747V41.7696C31.1252 41.7696 31.1252 41.7272 31.1252 41.7061C31.2452 40.683 31.8096 40.0903 32.2118 39.7869L32.0777 39.4412C30.7654 40.0127 28.4441 40.0268 28.3312 40.0268C28.3029 40.0268 25.897 40.0268 24.5423 39.4341L24.4082 39.7799C24.8598 40.1044 25.5089 40.7747 25.5371 41.9812V54.498C25.5512 56.0855 25.7488 57.4896 26.1157 58.7314C26.5249 60.1143 27.1458 61.2785 27.9854 62.224C27.929 62.2875 27.8655 62.351 27.809 62.4215C27.7526 62.485 27.7103 62.5556 27.6538 62.6191C26.7436 61.6172 26.031 60.333 25.5795 58.7244L25.6006 58.7385ZM28.818 85.7052C28.2042 85.7052 27.7526 85.9592 27.2587 86.7142L26.158 86.1639C26.8212 83.6168 27.0964 81.5424 26.3485 79.7785L29.5659 79.8208C30.3067 83.3134 30.5043 85.423 35.9936 85.423H36.1488C37.2848 85.3877 40.3399 84.5199 40.3399 81.62C40.3399 76.4835 29.192 75.3334 27.047 69.2373C26.7013 68.2636 26.5814 67.1629 26.786 65.9C26.92 65.0603 27.2375 64.2137 27.7526 63.4164C27.802 63.3388 27.8443 63.2682 27.8937 63.1906C27.9431 63.1271 27.9925 63.0636 28.0419 63.0001C28.0913 62.9366 28.1336 62.8731 28.183 62.8166C28.2394 62.7531 28.2959 62.6826 28.3523 62.612C29.1567 61.7089 30.2785 60.9398 31.7532 60.4318C31.8237 60.4107 31.8943 60.3754 31.9719 60.3542C32.0495 60.326 32.1412 60.3119 32.2259 60.2907C32.3035 60.2695 32.3882 60.2413 32.4728 60.2272C32.5575 60.206 32.6351 60.1778 32.7198 60.1637C33.63 59.952 34.653 59.8321 35.7961 59.8321H35.9372C36.6286 59.8321 37.2495 59.8674 37.7999 59.9168C38.4067 59.9803 38.9358 60.0579 39.4015 60.1567C39.3803 60.2343 39.3521 60.326 39.3309 60.4036C39.3027 60.4883 39.2674 60.5588 39.2392 60.6435C38.8229 60.5588 38.3502 60.4812 37.8069 60.4318C37.2566 60.3754 36.6427 60.3401 35.9442 60.3401H35.8031C34.7095 60.3401 33.7358 60.453 32.868 60.6505C32.7833 60.6717 32.7057 60.6929 32.621 60.7141C32.5434 60.7352 32.4587 60.7564 32.3811 60.7775C32.2964 60.7987 32.2047 60.8199 32.1271 60.8411C32.0566 60.8622 31.986 60.8975 31.9084 60.9187C30.5184 61.3914 29.4742 62.1111 28.7263 62.9578C28.6698 63.0213 28.6134 63.0918 28.5569 63.1624C28.5076 63.2259 28.4511 63.2894 28.4088 63.3529C28.3594 63.4164 28.3171 63.4799 28.2747 63.5434C28.2183 63.6139 28.1759 63.6915 28.1265 63.7692C27.682 64.4818 27.3998 65.2438 27.2799 65.9917C27.0894 67.2335 27.2164 68.2989 27.5833 69.2514C28.6416 71.982 31.6756 73.6683 34.6389 75.3052C37.8281 77.0691 40.8479 78.7413 40.8479 81.6341C40.8479 84.7598 37.694 85.8816 36.17 85.9381H36.0007C30.3279 85.9381 29.8411 83.6026 29.1708 80.3641V80.3288L27.0611 80.3006C27.5409 82.0504 27.2234 84.0048 26.7507 85.9098L27.1035 86.0862C27.5974 85.4795 28.1265 85.2184 28.8251 85.2184C29.3331 85.2184 29.9046 85.3595 30.6243 85.5429C31.9084 85.8746 33.6723 86.3191 36.4734 86.3402H36.6145C43.141 86.3402 47.3815 83.6732 47.4097 79.5456C47.452 74.5149 43.1481 72.8004 38.9852 71.1353C37.4965 70.5426 36.0501 69.964 34.8788 69.2444C33.6017 68.4612 32.6492 67.5087 32.3388 66.1822C32.3106 66.0764 32.2964 65.9705 32.2753 65.8647C32.2612 65.773 32.2471 65.6812 32.2329 65.5895C32.2259 65.4978 32.2188 65.4061 32.2118 65.3214C32.2118 65.2367 32.2118 65.1521 32.2118 65.0745C32.2118 64.9827 32.2118 64.8981 32.2118 64.8063C32.2753 64.1078 32.5222 63.4375 32.9597 62.8378C33.002 62.7743 33.0373 62.7179 33.0867 62.6544C33.0867 62.6544 33.0937 62.6473 33.1008 62.6402C33.1572 62.5697 33.2207 62.5062 33.2842 62.4427C33.3407 62.3792 33.3901 62.3157 33.4465 62.2592C33.51 62.1957 33.5735 62.1393 33.6441 62.0758C34.6672 61.1444 36.1347 60.5518 37.5247 60.5518C37.6235 60.5518 37.7152 60.5518 37.8069 60.5588C38.2867 60.58 38.7453 60.6505 39.1898 60.7705C39.1616 60.8481 39.1263 60.9328 39.0911 61.0033C39.0558 61.088 39.0134 61.1586 38.9711 61.2432C38.5901 61.1444 38.195 61.0809 37.7999 61.0598C37.7081 61.0598 37.6094 61.0527 37.5176 61.0527C36.3182 61.0527 34.9494 61.5466 33.9828 62.4215C33.9193 62.485 33.8558 62.5485 33.7923 62.612C33.7358 62.6685 33.6794 62.7249 33.6229 62.7884C33.5665 62.8519 33.51 62.9225 33.4606 62.993C33.4112 63.0565 33.3619 63.12 33.3195 63.1835C32.9738 63.6915 32.7551 64.2772 32.7127 64.9333C32.7127 65.018 32.7127 65.1097 32.7127 65.1944C32.7127 65.2791 32.7127 65.3637 32.7127 65.4484C32.7127 65.5331 32.7339 65.6177 32.748 65.7024C32.7621 65.7941 32.7762 65.8788 32.7974 65.9705C32.7974 66.0058 32.7974 66.034 32.8115 66.0622C33.1431 67.4734 34.3214 68.433 35.8807 69.2444C40.347 71.5657 47.953 72.6593 47.8965 79.5456C47.8542 84.026 43.4091 86.8412 36.5933 86.8412H36.4522C32.0354 86.813 30.081 85.7193 28.8039 85.7193L28.818 85.7052Z" fill="white"/>
<path d="M71.8506 43.3288L69.5081 36.8024L69.4164 36.5413C70.8416 35.7863 72.034 34.728 72.8948 33.4156C74.3059 31.2707 74.694 28.6319 73.9884 25.986C72.7325 21.2869 69.1694 18.5917 64.2093 18.5917C63.1721 18.5917 62.0785 18.7116 60.9707 18.9586C60.8296 18.9868 60.5685 19.0573 60.2369 19.142C59.0233 19.4595 56.7655 20.0522 55.6648 20.0522C55.6013 20.0522 55.5379 20.0522 55.4814 20.0451H55.4602H55.4391C54.289 20.0451 52.264 19.8688 51.7419 19.396L51.2057 18.9092L50.9376 19.5865L50.4295 20.8777L50.2461 21.3434L50.7188 21.5268C50.7188 21.5268 51.4385 21.8302 51.6149 22.7051V43.6887C51.5161 44.6977 50.747 45.0363 50.7118 45.0504L50.2532 45.2409L50.4295 45.7066L50.9376 46.9555L51.1986 47.6046L51.7278 47.146C52.2358 46.7156 54.2396 46.4968 55.4391 46.4898C56.6103 46.4968 58.6 46.7156 59.101 47.146L59.6301 47.6046L59.8912 46.9555L60.3992 45.7066L60.5827 45.248L60.124 45.0575C60.124 45.0575 59.2209 44.6412 59.2209 43.4841V37.7549C60.378 38.5945 61.6551 39.1731 62.5794 39.4623L64.3998 43.9215C64.6326 44.747 64.2234 45.0222 64.1387 45.0716L63.6166 45.3538L63.9694 45.8266L64.9854 47.1177L65.4017 47.6469L65.7897 47.0895C66.0226 46.7579 67.7089 46.4968 69.0636 46.4827C69.8326 46.4827 72.2527 46.6309 73.1347 47.2165L73.9108 47.7386V45.1422L73.5721 45.0293C73.5298 45.0152 72.3656 44.5989 71.8435 43.3147L71.8506 43.3288ZM73.424 46.8144C72.2457 46.0312 69.113 45.9888 69.0706 45.9888C69.0283 45.9888 65.9379 46.0241 65.3876 46.8144L64.3715 45.5232C64.3715 45.5232 65.2747 45.0928 64.8796 43.7592L62.9604 39.0531C61.7045 38.7003 59.9829 37.8395 58.727 36.7036V43.4841C58.727 45.0081 59.9406 45.5232 59.9406 45.5232L59.4326 46.7791C58.5718 46.0312 55.4743 45.9959 55.432 45.9959C55.3897 45.9959 52.257 46.0312 51.3962 46.7791L50.8882 45.5232C50.8882 45.5232 51.9818 45.0928 52.1017 43.724V23.065C52.0665 21.5409 50.8882 21.0682 50.8882 21.0682L51.3962 19.777C52.257 20.5602 55.3967 20.5602 55.432 20.5602C55.5026 20.5602 55.5731 20.5673 55.6578 20.5673C57.1324 20.5673 60.4063 19.6147 61.0766 19.4595C62.149 19.2267 63.2003 19.1067 64.2093 19.1067C68.6826 19.1067 72.2527 21.4563 73.5016 26.1271C74.948 31.5388 71.5048 36.3931 65.5851 37.261C65.4158 37.2821 65.2535 37.3033 65.0842 37.3245C65.4087 37.3668 65.7403 37.388 66.0649 37.388C66.0649 37.388 66.079 37.388 66.0861 37.388C66.7281 37.388 67.3702 37.3245 68.0052 37.2116C68.3509 37.1481 68.6896 37.0775 69.0283 36.9929L71.3778 43.5405C72.0058 45.0645 73.4169 45.5373 73.4169 45.5373V46.8285L73.424 46.8144Z" fill="white"/>
<path d="M70.9192 43.7099L68.7531 37.6773C68.6826 37.6984 68.612 37.6984 68.5414 37.7125C68.5344 37.7125 68.5273 37.7125 68.5203 37.7125C68.2733 37.7549 68.0405 37.7902 67.8077 37.8184C67.6595 37.8395 67.5113 37.8678 67.3561 37.8819C67.2432 37.896 67.1233 37.8819 67.0104 37.896C66.9963 37.896 66.9821 37.896 66.968 37.896C66.6152 37.9172 66.2695 37.9313 65.9591 37.9313H65.9238C65.9238 37.9313 65.9238 37.9313 65.9167 37.9313H65.9097H65.9026C65.444 37.9313 64.9572 37.8819 64.4633 37.7972C64.428 37.7972 64.3857 37.7831 64.3504 37.776C64.3222 37.776 64.301 37.7619 64.2728 37.7549C64.1952 37.7408 64.1175 37.7196 64.0399 37.7055C63.9341 37.6773 63.8212 37.6561 63.7154 37.6279C63.7083 37.6279 63.7013 37.6279 63.6942 37.6279C63.673 37.6279 63.6519 37.6138 63.6236 37.6067C63.539 37.5855 63.4543 37.5573 63.3696 37.5291C63.3908 37.5291 63.412 37.5432 63.4261 37.5503C63.3273 37.522 63.2356 37.4868 63.1439 37.4515C63.1297 37.4515 63.1086 37.4374 63.0945 37.4303C63.0804 37.4303 63.0592 37.4162 63.0451 37.4162C63.0239 37.4091 63.0098 37.4021 62.9886 37.395C62.5723 37.2257 62.1913 37.0281 61.8809 36.7741C62.4806 36.8729 63.0874 36.9153 63.6871 36.9153C64.2869 36.9153 64.8937 36.8588 65.5075 36.76C68.358 36.3437 70.6793 34.9679 72.0622 32.8724C73.3111 30.9673 73.6568 28.6178 73.0218 26.2541C71.8929 22.0278 68.6826 19.6077 64.2163 19.6077C63.2497 19.6077 62.2337 19.7206 61.1894 19.9534C61.0554 19.9816 60.8155 20.0451 60.498 20.1298C59.2421 20.4544 56.8996 21.0682 55.6648 21.0682C55.5731 21.0682 55.4955 21.0682 55.4179 21.0612C54.9099 21.0612 52.8637 21.0188 51.6572 20.5108L51.5232 20.8495C51.5796 20.8848 51.6361 20.9342 51.6996 20.9836C51.7278 21.0047 51.756 21.0259 51.7842 21.0541C51.8124 21.0823 51.8477 21.1106 51.876 21.1388C51.9042 21.167 51.9395 21.2023 51.9677 21.2376C52.003 21.2728 52.0382 21.3222 52.0735 21.3646C52.1088 21.3998 52.137 21.4492 52.1582 21.4845C52.2005 21.5409 52.2358 21.5974 52.2711 21.6609C52.2993 21.7173 52.3346 21.7738 52.3557 21.8373C52.3628 21.8585 52.3769 21.8796 52.384 21.9008C52.3981 21.922 52.4051 21.9431 52.4122 21.9713C52.4263 21.9925 52.4334 22.0207 52.4475 22.049C52.4475 22.056 52.4475 22.0631 52.4475 22.0701C52.4686 22.1266 52.4898 22.1971 52.5039 22.2677C52.5251 22.3453 52.5392 22.43 52.5533 22.5146C52.5674 22.5993 52.5745 22.691 52.5886 22.7827C52.5956 22.8462 52.6027 22.9098 52.6027 22.9733V23.4036V43.7099V43.731C52.511 44.7894 51.9324 45.3962 51.5161 45.6996L51.6431 46.0241C52.9907 45.4667 55.4038 45.4597 55.432 45.4597C55.4602 45.4597 57.838 45.4667 59.1786 46.0241L59.3056 45.6925C58.8611 45.3609 58.219 44.6694 58.219 43.4488V35.5323C58.8399 36.1039 59.4255 36.6542 60.1311 37.1199V37.0987C60.4909 37.3315 60.8225 37.5362 61.133 37.7125C61.1259 37.7125 61.1189 37.7055 61.1048 37.6984C62.2266 38.3193 63.2991 38.6509 63.3414 38.6368L63.412 38.8132L65.3311 43.5194V43.5405L65.3452 43.5617C65.6204 44.493 65.3734 45.1422 65.0489 45.5373L65.4581 46.0594C66.5729 45.4526 68.7672 45.4385 69.0565 45.4385C69.0847 45.4385 71.3778 45.4526 72.9018 45.9747V45.7983C72.3868 45.5443 71.4131 44.9164 70.9051 43.6605L70.9192 43.7099ZM58.9034 28.9847C58.5718 27.7288 58.346 26.5858 58.2261 25.5909V25.5556V23.2131V23.1708C58.3672 22.3524 59.3267 20.9271 61.3164 20.6025C61.6128 20.5602 61.895 20.539 62.1702 20.539C65.8109 20.539 67.215 24.2503 68.0334 27.4818C68.6684 30.0289 69.113 32.6042 68.0546 34.1988C67.5043 35.0314 66.6223 35.5394 65.3452 35.744C65.0418 35.7863 64.7455 35.8075 64.4633 35.8075C61.0765 35.8075 59.7924 32.5266 58.9034 28.9776V28.9847ZM63.8635 37.6773C63.8212 37.6632 63.7718 37.6561 63.7295 37.642C63.8071 37.6632 63.8988 37.6773 63.9835 37.6984C64.1034 37.7267 64.2093 37.7549 64.3363 37.776C64.174 37.7478 64.0188 37.7125 63.8635 37.6702V37.6773Z" fill="white"/>
<path d="M67.7865 37.8184C67.7865 37.8184 67.7935 37.8184 67.8006 37.8184C67.977 37.7972 68.1463 37.769 68.3227 37.7408C68.1463 37.769 67.9629 37.7972 67.7865 37.8184Z" fill="white"/>
<path d="M66.0296 37.9313C66.0296 37.9313 65.9732 37.9313 65.9379 37.9313C65.9379 37.9313 65.9379 37.9313 65.9449 37.9313C66.1355 37.9313 66.3189 37.9172 66.5094 37.9101C66.3471 37.9101 66.1848 37.9313 66.0226 37.9242L66.0296 37.9313Z" fill="white"/>
<path d="M65.2676 35.2501C68.6755 34.6998 68.5979 31.8422 67.5395 27.6018C66.5658 23.7353 65.0912 21.033 62.1631 21.033C61.9162 21.033 61.6551 21.0541 61.387 21.0965C59.7077 21.3716 58.8399 22.5429 58.727 23.2555V25.5274C58.8399 26.5434 59.0798 27.6865 59.3902 28.8577C60.3569 32.7454 61.5986 35.3066 64.4632 35.3066C64.7314 35.3066 64.9995 35.2854 65.2676 35.2431V35.2501ZM59.8771 28.7378C59.5596 27.5312 59.3408 26.4447 59.2279 25.4992V23.3049C59.3267 22.8463 60.0041 21.8373 61.4716 21.5974C61.7045 21.5621 61.9444 21.548 62.1702 21.548C64.4703 21.548 65.9802 23.4531 67.0597 27.7358C67.6101 29.9443 68.0616 32.3785 67.222 33.6556C66.834 34.2412 66.1707 34.601 65.197 34.7633C64.9501 34.7986 64.7031 34.8197 64.4703 34.8197C62.2619 34.8197 60.9777 33.1193 59.8841 28.7448L59.8771 28.7378Z" fill="white"/>
<path d="M72.8313 54.3569L72.168 54.124L70.7216 53.616L70.5311 53.5525L70.3477 53.6372C69.8679 53.8206 66.0155 54.0182 60.625 54.0182C55.2344 54.0182 52.3063 53.8206 51.7772 53.6231L51.6078 53.5596L51.4385 53.616L49.9921 54.124L49.3218 54.3569L49.7663 54.9072C50.3872 55.6833 50.3307 58.0964 49.985 59.2747L49.7592 60.0578L50.5565 59.9167L52.2781 59.6063L52.6027 59.5498L52.6732 59.2253C52.7085 59.0489 52.7438 58.8725 52.772 58.6961C52.9837 57.5108 53.1248 56.7276 55.4602 56.7276C56.4621 56.7276 57.2453 57.5884 57.2735 58.3574V78.0639C57.1747 79.0376 56.4057 79.3692 56.3704 79.3833L55.9188 79.5738L56.0952 80.0324L56.6032 81.3236L56.8713 82.001L57.4076 81.5141C57.9085 81.0626 59.8912 80.8368 61.0695 80.8227C61.9867 80.8227 64.2022 81.0061 64.7666 81.5141L65.3029 82.001L65.5639 81.3236L66.0719 80.0324L66.2554 79.5668L65.7897 79.3833C65.7897 79.3833 64.9924 79.0447 64.8936 78.0639V58.3715C64.8936 57.3202 66.3189 56.7205 66.6999 56.7205C69.0071 56.7205 69.1412 57.4896 69.3458 58.6538C69.381 58.8443 69.4093 59.0348 69.4516 59.2182L69.5222 59.5428L69.8467 59.5992L71.5683 59.9097L72.3656 60.0508L72.1398 59.2676C71.8011 58.0893 71.7447 55.6833 72.3656 54.9002L72.803 54.3498L72.8313 54.3569ZM71.6812 59.4158L69.9596 59.1053C69.6492 57.6942 69.8538 56.2125 66.714 56.2125C66.0931 56.2125 64.4068 56.9957 64.4068 58.3645V78.078C64.5197 79.4116 65.6204 79.8419 65.6204 79.8419L65.1124 81.1331C64.2516 80.35 61.1541 80.3147 61.0765 80.3147C61.0412 80.3147 57.9438 80.357 57.076 81.1331L56.568 79.8419C56.568 79.8419 57.6616 79.4116 57.7815 78.078V58.3222C57.7462 57.2638 56.7232 56.2055 55.4673 56.2055C52.3345 56.2055 52.4968 57.6871 52.1864 59.0983L50.4648 59.4087C50.8176 58.1951 50.9375 55.5704 50.1543 54.5897L51.6078 54.0817C52.4051 54.378 56.4621 54.505 60.632 54.505C65.2464 54.505 69.9878 54.3498 70.5664 54.0817L72.0128 54.5897C71.2296 55.5704 71.3496 58.1951 71.7024 59.4087L71.6812 59.4158Z" fill="white"/>
<path d="M70.5382 54.6109C68.8378 55.006 60.9707 55.013 60.6179 55.013C58.339 55.013 53.0684 54.9778 51.6078 54.6109L50.8741 54.8719C51.3186 55.9585 51.2974 57.6166 51.1069 58.7878L51.756 58.6679C51.7701 58.6114 51.7772 58.555 51.7913 58.5056C52.0171 57.2567 52.2922 55.7045 55.4673 55.7045C56.9137 55.7045 58.2331 56.9181 58.2825 58.308V78.1274C58.1908 79.1646 57.6122 79.7573 57.1889 80.0607L57.3229 80.4064C58.6635 79.8208 61.0413 79.8137 61.0695 79.8137C61.1824 79.8137 63.5178 79.8208 64.8513 80.4064L64.9854 80.0607C64.5691 79.7643 63.9905 79.1646 63.8988 78.1274V78.1062V58.3715C63.8988 56.65 65.8956 55.7116 66.714 55.7116C69.8679 55.7116 70.136 57.2497 70.3548 58.4774C70.3618 58.5409 70.3759 58.6114 70.383 58.6749L71.0321 58.7949C70.8487 57.6236 70.8275 55.9726 71.2649 54.879L70.5311 54.6179L70.5382 54.6109Z" fill="white"/>
<path d="M26.2921 20.3556C26.5814 20.532 26.8918 20.5249 27.2164 20.4544C27.5762 20.3768 27.7244 20.1157 27.8443 19.8264C27.922 19.7206 27.9996 19.65 28.056 19.6077C28.176 19.6218 28.5429 19.3467 28.6487 19.3114C28.8886 19.2267 29.1496 19.2126 29.3119 18.9586C29.4389 18.754 29.9328 18.7328 30.4408 19.0503C31.0053 19.4031 31.2946 19.1138 31.6332 19.2831C31.9296 19.4313 32.0989 19.77 31.8167 19.9675C31.2805 20.3415 31.2946 20.5532 31.0476 20.8848C30.8077 21.2023 30.5326 21.4986 30.3491 21.8585C30.2503 22.049 30.1374 22.2324 29.9963 22.3947C29.827 22.5993 29.7353 22.818 29.7705 23.072C29.8482 23.6365 29.9469 24.201 30.0245 24.7583C30.0245 24.7583 29.7212 26.233 30.3279 26.614C30.3279 26.614 30.4408 26.8116 30.6243 26.614C30.8077 26.4164 31.1605 25.9155 31.2593 25.732C31.3581 25.5486 31.1464 25.1111 30.9347 25.0759C30.6948 25.0406 30.6737 24.97 30.7019 24.7372C30.7301 24.5396 30.7442 24.3421 30.7583 24.1374C30.7866 23.7494 30.6525 23.4389 30.8853 23.1003C30.9982 22.9309 30.9912 22.7828 30.9206 22.7193C30.6737 22.5076 31.5909 22.303 31.8096 22.1619C32.1977 21.9079 32.5928 21.675 32.995 21.4492C33.1925 21.3363 33.3972 21.2305 33.5947 21.1247L33.8981 21.3081C34.0322 21.4634 34.138 21.6045 34.265 21.7244C34.6601 22.0984 35.0764 22.4582 35.4715 22.8322C35.6267 22.9803 36.1277 23.3402 36.3958 23.4107C36.6075 23.4672 36.3676 23.9893 36.3111 24.1868C36.2406 24.4479 35.8102 24.8218 35.528 25.2311C35.0411 25.9578 34.893 26.7339 35.0693 27.5736C35.1046 27.7429 35.1399 27.9193 35.1611 28.0886C35.1963 28.4767 35.1893 28.8577 34.9988 29.2105C34.8365 29.5068 35.0552 29.5774 34.8295 29.8314C34.3144 30.417 34.2579 30.6004 34.0181 30.6781C33.6229 30.8051 33.3901 30.9673 33.3689 30.9956C32.4587 31.1367 32.36 31.6094 32.0707 31.9551C31.9366 32.1104 32.0284 32.3503 32.2259 32.3855C32.2894 32.3926 32.3459 32.4067 32.4094 32.4137C32.6351 32.4349 32.8539 32.4349 33.0796 32.442C33.3689 32.442 33.4748 32.4349 33.5383 32.3079C33.6229 32.1315 33.7217 31.8987 34.0463 31.7011C34.4414 31.6235 34.5543 31.3413 34.639 31.1085C34.766 30.7557 35.1258 30.5793 35.4221 30.3394C35.5703 30.2194 36.0219 29.9795 35.9936 29.6409C35.9513 29.1681 35.9443 28.9141 36.2194 28.5543C36.3253 28.4132 36.417 28.258 36.4805 28.0886C36.9532 26.8609 37.6517 26.8609 38.322 26.1624C38.449 26.0284 38.6819 26.0778 38.7383 26.2542C38.7736 26.367 38.83 26.5011 38.9147 26.6845C39.1475 27.2137 39.4862 27.5595 39.1052 28.5896C38.9429 29.0341 39.1828 29.3939 38.9076 29.7749C38.6819 30.0783 38.2303 30.7133 38.0892 30.7627C37.8069 30.8615 37.7646 31.0026 37.5953 31.2496C37.4048 31.3695 37.2002 31.4895 37.0308 31.6447C36.8756 31.7929 36.7557 31.9763 36.6145 32.1668C36.5652 32.2374 36.5863 32.322 36.671 32.3573C37.0308 32.4984 37.7999 32.4349 38.2021 32.442C38.2515 32.442 38.3291 32.3714 38.3432 32.315C38.4137 32.1033 38.4702 31.8846 38.5266 31.7082C38.5266 31.7082 38.83 31.5459 38.83 31.1014C38.83 30.9321 39.465 30.1207 39.9448 29.8596C40.3399 29.6409 40.0718 29.4151 40.227 28.9847C40.5022 28.2227 40.3188 27.0726 41.2289 26.7128C42.0121 26.4023 42.2097 25.1605 42.5907 24.9206C42.7318 24.836 42.9011 25.0406 43.0493 25.1111C43.1693 25.1676 43.2821 25.2593 43.4092 25.2946C44.0442 25.4569 44.5381 25.224 44.9685 24.843C45.2789 24.5678 45.5259 24.2221 45.6176 23.8199C45.9139 22.4935 45.5682 22.2465 45.42 21.4845C45.3495 21.1106 45.0531 20.5461 45.2577 19.7488C45.4059 19.1632 45.1519 18.9727 45.6317 18.5917C45.9845 18.3095 45.8716 18.0202 46.048 17.7521C46.2738 17.3993 46.5419 17.1453 47.064 16.4115C47.5861 15.6777 46.5771 15.1909 46.6195 15.4237C46.6618 15.6565 46.7041 16.0305 46.1538 16.1081C45.6105 16.1787 44.9967 16.5103 44.9967 16.5103C44.8626 16.5738 44.7497 16.6726 44.6298 16.7572C43.5997 17.484 43.3527 17.872 43.3315 19.0291C43.3174 19.8264 43.769 20.4967 43.5855 21.3857C43.3809 22.3735 44.0512 22.8674 44.0653 23.2908C44.0865 24.0881 43.388 24.3773 42.7318 24.1374C42.6119 24.0951 42.5484 24.0175 42.5554 23.8693C42.5625 23.7353 42.5484 23.5942 42.5201 23.4601C42.379 22.7122 41.8216 22.2324 41.3489 21.7103C41.0455 21.3787 40.6504 21.1247 40.3117 20.8213C39.9166 20.4756 39.5285 20.1157 39.1546 19.7488C38.8018 19.4031 38.4278 19.0715 38.2726 18.5635C38.1738 18.253 38.0116 17.9637 37.8563 17.6745C37.8281 17.618 37.7364 17.3358 37.5036 17.2582C37.052 17.1171 37.179 16.6232 37.186 16.6514C37.2989 17.0324 37.941 17.4769 38.576 17.3146C38.7806 17.2652 38.95 17.1947 39.0911 17.11C39.204 17.0465 39.3028 16.9759 39.3874 16.9054C39.7473 16.5949 39.5991 16.5032 39.2392 16.6302C39.0558 16.6937 38.8441 16.7219 38.6113 16.6726C37.7858 16.4962 38.1103 15.2826 37.4753 14.9862C34.9635 13.8009 37.0943 12.3545 35.3727 12.0158C34.6248 11.8676 34.6672 10.8798 33.8064 10.7528C33.4113 10.6964 33.0232 10.6611 32.5575 10.8093C32.3952 10.8587 32.2259 10.901 32.0777 10.8093C31.7673 10.6047 31.4145 10.5906 31.0547 10.6258C31.0194 10.6258 30.9982 10.6611 31.0123 10.6893C31.1111 10.9575 31.4639 11.0562 31.4639 11.409C31.3581 11.3596 31.3016 11.3385 31.2452 11.3032C30.4549 10.8869 29.6576 10.4706 28.8604 10.0614C28.8039 10.0332 28.7192 10.0473 28.6487 10.0402C28.6769 10.1108 28.684 10.2025 28.7263 10.2519C28.8392 10.3718 28.9662 10.4988 29.1073 10.5906C29.2625 10.6964 29.3825 10.894 29.6294 10.8446C29.6576 10.8446 29.7423 10.9292 29.7423 10.9786C29.7494 11.1268 29.8834 11.2538 30.0245 11.2256C30.0951 11.2115 30.1727 11.2185 30.2433 11.2115C30.2433 11.2891 30.2292 11.3667 30.2221 11.4584C30.335 11.6983 30.5537 11.4514 30.7301 11.5431C30.6948 11.6277 30.5678 11.8041 30.8077 11.91C30.8571 11.9311 30.9982 12.0652 30.9982 12.1146C30.9982 12.3968 30.7513 12.6438 30.8501 12.9119C30.9841 13.2929 30.7795 13.9773 30.7301 14.5065C30.7019 14.7675 30.6807 15.0215 30.6454 15.2826C30.6313 15.332 30.6102 15.3743 30.5819 15.4096C30.4056 15.6565 30.5396 15.9105 30.5396 15.9105C30.5396 16.0023 30.5749 16.0869 30.6666 16.1645C30.7513 16.2422 30.843 16.3198 30.9488 16.3692C31.217 16.5103 31.6756 16.3409 31.8026 16.101C31.8802 15.9458 31.9437 15.9035 31.9437 15.7553C31.9437 15.4801 32.233 15.1556 32.4376 14.958C32.4587 14.9369 32.4658 14.9157 32.487 14.8945C32.6845 14.704 32.8821 14.5135 33.0796 14.3301C33.1008 14.3442 33.1149 14.3653 33.1361 14.3795C33.1008 14.443 33.0796 14.5276 33.0303 14.57C32.7692 14.8099 32.748 15.085 32.8468 15.4025C32.9385 15.713 32.9668 16.0234 32.8539 16.3409C32.7198 16.7219 32.4094 17.0888 32.2824 17.4698C32.113 17.9708 32.3811 18.1472 31.7391 18.0343C31.7179 18.0343 31.6967 18.0343 31.6826 18.0343C31.0758 18.0202 30.4832 17.9708 29.9046 17.7662C29.5871 17.6533 29.2484 17.611 29.0226 17.9708C29.0085 17.999 28.9662 18.0061 28.945 18.0343C28.2324 18.761 27.2164 19.1279 27.1811 19.2902C27.1811 19.2902 26.9483 19.3184 26.8142 19.516C26.6308 19.6853 26.4403 19.8547 26.2568 20.0381C26.1157 20.1722 26.1298 20.2709 26.3062 20.3697L26.2921 20.3556Z" fill="white"/>
</g>
<defs>
<clipPath id="clip0_73_4">
<rect width="73.6683" height="100" fill="white" transform="translate(0.665894)"/>
</clipPath>
</defs>
</svg>
