<svg width="44" height="44" viewBox="0 0 44 44" fill="none" xmlns="http://www.w3.org/2000/svg">
<g id="Group 1" filter="url(#filter0_d_73_403)">
<circle id="Ellipse 1" cx="22" cy="20" r="20" fill="white" fill-opacity="0.5"/>
<path id="Arrow 2" d="M21.625 32.6093C21.625 33.1615 22.0727 33.6093 22.625 33.6093C23.1773 33.6093 23.625 33.1615 23.625 32.6093L21.625 32.6093ZM23.3321 6.90215C22.9416 6.51162 22.3084 6.51162 21.9179 6.90215L15.5539 13.2661C15.1634 13.6566 15.1634 14.2898 15.5539 14.6803C15.9445 15.0708 16.5776 15.0708 16.9681 14.6803L22.625 9.02347L28.2819 14.6803C28.6724 15.0708 29.3055 15.0708 29.6961 14.6803C30.0866 14.2898 30.0866 13.6566 29.6961 13.2661L23.3321 6.90215ZM23.625 32.6093L23.625 7.60925L21.625 7.60925L21.625 32.6093L23.625 32.6093Z" fill="white"/>
</g>
<defs>
<filter id="filter0_d_73_403" x="0" y="0" width="44" height="44" filterUnits="userSpaceOnUse" color-interpolation-filters="sRGB">
<feFlood flood-opacity="0" result="BackgroundImageFix"/>
<feColorMatrix in="SourceAlpha" type="matrix" values="0 0 0 0 0 0 0 0 0 0 0 0 0 0 0 0 0 0 127 0" result="hardAlpha"/>
<feOffset dy="2"/>
<feGaussianBlur stdDeviation="1"/>
<feComposite in2="hardAlpha" operator="out"/>
<feColorMatrix type="matrix" values="0 0 0 0 0 0 0 0 0 0 0 0 0 0 0 0 0 0 0.25 0"/>
<feBlend mode="normal" in2="BackgroundImageFix" result="effect1_dropShadow_73_403"/>
<feBlend mode="normal" in="SourceGraphic" in2="effect1_dropShadow_73_403" result="shape"/>
</filter>
</defs>
</svg>
